<?xml version="1.0" standalone="no"?><!DOCTYPE svg PUBLIC "-//W3C//DTD SVG 1.1//EN" "http://www.w3.org/Graphics/SVG/1.1/DTD/svg11.dtd"><svg t="1528364626179" class="icon" style="" viewBox="0 0 1024 1024" version="1.1" xmlns="http://www.w3.org/2000/svg" p-id="8469" xmlns:xlink="http://www.w3.org/1999/xlink" width="64" height="64"><defs><style type="text/css"></style></defs><path d="M174.701867 796.626133l-0.274134 0.421334C70.88 744.059733 0 636.3072 0 512c0-176.730667 143.269333-320 320-320h348.496c11.7824 0 21.333333 9.550933 21.333333 21.333333a21.333333 21.333333 0 0 1-6.247466 15.0848L564.418133 347.581867c-8.330667 8.330667-21.838933 8.330667-30.1696 0A21.333333 21.333333 0 0 1 528 332.497067v-76.085334L320 256C178.615467 256 64 370.615467 64 512c0 101.822933 59.445333 189.76 145.525333 231.0016l-0.065066 0.101333C219.3952 748.533333 226.133333 759.079467 226.133333 771.2c0 17.6736-14.3264 32-32 32a31.860267 31.860267 0 0 1-19.431466-6.573867z m658.0608-505.934933l-0.258134-0.1504 0.014934-0.023467C824.452267 284.708267 819.2 275.234133 819.2 264.533333c0-17.6736 14.3264-32 32-32 5.888 0 11.402667 1.589333 16.141867 4.362667l0.058666-0.090667C961.1712 292.602667 1024 394.965333 1024 512c0 176.730667-143.269333 320-320 320H355.502933c-11.781333 0-21.333333-9.550933-21.333333-21.333333a21.333333 21.333333 0 0 1 6.248533-15.0848l119.163734-119.163734c8.330667-8.330667 21.838933-8.330667 30.1696 0A21.333333 21.333333 0 0 1 496 691.502933v76.082134c61.182933 0.110933 130.516267 0.248533 208 0.414933 141.384533 0 256-114.615467 256-256 0-92.672-49.242667-173.845333-122.989867-218.776533a31.985067 31.985067 0 0 1-4.247466-2.532267z" fill="#bfbfbf" p-id="8470"></path></svg>